<?xml version="1.0" encoding="UTF-8" standalone="no"?>
<svg
   xmlns:dc="http://purl.org/dc/elements/1.1/"
   xmlns:cc="http://creativecommons.org/ns#"
   xmlns:rdf="http://www.w3.org/1999/02/22-rdf-syntax-ns#"
   xmlns:svg="http://www.w3.org/2000/svg"
   xmlns="http://www.w3.org/2000/svg"
   xmlns:sodipodi="http://sodipodi.sourceforge.net/DTD/sodipodi-0.dtd"
   xmlns:inkscape="http://www.inkscape.org/namespaces/inkscape"
   version="1.1"
   viewBox="0 0 233 241"
   id="svg23"
   sodipodi:docname="logo.svg"
   width="233"
   height="241"
   inkscape:version="0.92.4 (5da689c313, 2019-01-14)">
  <metadata
     id="metadata27">
    <rdf:RDF>
      <cc:Work
         rdf:about="">
        <dc:format>image/svg+xml</dc:format>
        <dc:type
           rdf:resource="http://purl.org/dc/dcmitype/StillImage" />
        <dc:title></dc:title>
      </cc:Work>
    </rdf:RDF>
  </metadata>
  <sodipodi:namedview
     pagecolor="#ffffff"
     bordercolor="#666666"
     borderopacity="1"
     objecttolerance="10"
     gridtolerance="10"
     guidetolerance="10"
     inkscape:pageopacity="0"
     inkscape:pageshadow="2"
     inkscape:window-width="1920"
     inkscape:window-height="1017"
     id="namedview25"
     showgrid="false"
     showguides="true"
     inkscape:guide-bbox="true"
     inkscape:zoom="2"
     inkscape:cx="39.486215"
     inkscape:cy="120.76203"
     inkscape:window-x="-8"
     inkscape:window-y="-8"
     inkscape:window-maximized="1"
     inkscape:current-layer="svg23"
     inkscape:pagecheckerboard="true" />
  <defs
     id="defs17">
    <linearGradient
       id="a"
       x2="116.68872"
       x1="116.68872"
       y2="232.87497"
       gradientTransform="matrix(0.99946338,0,0,1.0005369,0,8)"
       y1="0"
       gradientUnits="userSpaceOnUse">
      <stop
         stop-color="#111D2E"
         offset="0"
         id="stop2"
         style="stop-color:#00bbee;stop-opacity:1" />
      <stop
         style="stop-color:#00748d;stop-opacity:1;"
         id="stop837"
         offset="0.68539739"
         stop-color="#111D2E" />
      <stop
         stop-color="#1387B8"
         offset="1"
         id="stop14"
         style="stop-color:#005e6e;stop-opacity:1" />
    </linearGradient>
  </defs>
  <path
     style="fill:url(#a)"
     d="M 116.50195,8 C 54.760953,8 4.2419531,56.028766 0.25195312,116.75977 c 0.0174855,0.0294 0.0333453,0.0566 0.0507813,0.0859 8.86e-6,-1.6e-4 9e-7,-0.0156 0,-0.0156 L 62.900391,142.59961 c 1.703,-1.12 3.518078,-2.08891 5.455078,-2.87891 4.394,-1.81 9.028484,-2.62015 13.646484,-2.41015 L 110.50977,95.898438 c -0.01,-0.184 -0.01,-0.380172 -0.01,-0.576172 C 110.5,70.882266 130.35,51 154.75,51 179.16,51 199,70.882266 199,95.322266 c 0,24.438004 -19.84,44.337894 -44.25,44.337894 -0.33,0 -0.67,-0.01 -1,-0.0195 l -40.78906,29.14844 c 0.12,4.5 -0.71024,9.01055 -2.49024,13.31055 -6.84,16.45 -25.799184,24.28016 -42.242184,17.41016 -10.05,-4.19 -16.861985,-12.90008 -19.083985,-22.83008 L 5.0429688,158.48242 C 19.586881,206.24731 63.982362,241 116.50195,241 c 64.34,0 116.5,-52.16 116.5,-116.5 0,-64.341 -52.16,-116.5 -116.5,-116.5 z M 154.75,65.792969 c -16.25,0 -29.48047,13.254297 -29.48047,29.529297 0,16.288004 13.23047,29.537114 29.48047,29.537114 16.26,-1e-5 29.49023,-13.24911 29.49023,-29.537114 0,-16.275 -13.23023,-29.529297 -29.49023,-29.529297 z m 0.0508,7.292969 c 12.23,0 22.14844,9.938406 22.14844,22.191406 0,12.253996 -9.91844,22.183596 -22.14844,22.183596 -12.22,0 -22.14062,-9.9296 -22.14062,-22.183596 0,-12.253 9.92062,-22.191406 22.14062,-22.191406 z M 80.917969,144.68945 c -3.114125,-0.025 -6.183641,0.54086 -9.056641,1.63086 l 14.892578,6.16992 c 9.358,3.9 13.786814,14.6593 9.882813,24.0293 -3.892,9.36 -14.635047,13.80039 -23.998047,9.90039 l -14.404297,-5.9707 c 2.551,5.33 6.973078,9.80023 12.830078,12.24023 12.696,5.29 27.301703,-0.73922 32.595707,-13.44922 2.56,-6.14 2.56906,-12.93961 0.0391,-19.09961 -2.53,-6.16 -7.304032,-10.98101 -13.457032,-13.54101 -3.0515,-1.27 -6.210094,-1.88516 -9.324219,-1.91016 z"
     id="path19"
     inkscape:connector-curvature="0"
     sodipodi:nodetypes="scccccccssssccccccsssssssssssssscccccccccs"
     inkscape:label="path19" />
  <g
     inkscape:groupmode="layer"
     id="layer2"
     inkscape:label="pathbg"
     transform="translate(0,8)">
    <path
       style="fill:#00bbee;fill-opacity:1;stroke:none;stroke-width:1px;stroke-linecap:butt;stroke-linejoin:miter;stroke-opacity:1"
       d="M 62.241856,-2.3693583 53.819599,0.929063 52.25,131.5 81.5,101.25 109.25,132.5 113,6.25 l 4,-7.2500002 z"
       id="path958"
       inkscape:connector-curvature="0" />
    <path
       style="color:#000000;font-style:normal;font-variant:normal;font-weight:normal;font-stretch:normal;font-size:medium;line-height:normal;font-family:sans-serif;font-variant-ligatures:normal;font-variant-position:normal;font-variant-caps:normal;font-variant-numeric:normal;font-variant-alternates:normal;font-feature-settings:normal;text-indent:0;text-align:start;text-decoration:none;text-decoration-line:none;text-decoration-style:solid;text-decoration-color:#000000;letter-spacing:normal;word-spacing:normal;text-transform:none;writing-mode:lr-tb;direction:ltr;text-orientation:mixed;dominant-baseline:auto;baseline-shift:baseline;text-anchor:start;white-space:normal;shape-padding:0;clip-rule:nonzero;display:inline;overflow:visible;visibility:visible;opacity:1;isolation:auto;mix-blend-mode:normal;color-interpolation:sRGB;color-interpolation-filters:linearRGB;solid-color:#000000;solid-opacity:1;vector-effect:none;fill:#000000;fill-opacity:1;fill-rule:nonzero;stroke:none;stroke-width:4.87785292;stroke-linecap:butt;stroke-linejoin:round;stroke-miterlimit:4;stroke-dasharray:none;stroke-dashoffset:0;stroke-opacity:1;color-rendering:auto;image-rendering:auto;shape-rendering:auto;text-rendering:auto;enable-background:accumulate"
       d="m 62.266221,-2.3997 c -0.149026,1.27e-5 -5.383554,2.12102302 -5.739852,2.41119213 C 53.459598,2.5090982 48.642531,12.605485 48.642403,13.740739 l 0.603285,121.471081 c 0.0024,2.189 3.137,3.13219 4.646553,1.39821 l 28.078471,-32.30477 27.212628,32.27787 c 1.49188,1.76822 4.66836,0.83551 4.67017,-1.37131 l 0.0533,-134.28275702 c -1.4e-4,-1.26715905 9.87132,-3.29825418 8.43958,-3.29838108 z m -8.446652,3.32876298 h 60.087241 l -5.10857,10.58503302 -0.1297,6.839818 V 128.30006 L 84.080478,99.133747 c -1.027356,-1.218955 -3.08594,-1.232375 -4.133455,-0.02689 l -25.51637,29.357503 z"
       id="path882"
       inkscape:connector-curvature="0"
       sodipodi:nodetypes="cscccccccccccccccccc" />
    <path
       style="fill:none;stroke:#000000;stroke-width:0.79535234px;stroke-linecap:butt;stroke-linejoin:miter;stroke-opacity:1"
       d="m 82.002,129.31 c 0,0 0,0 0,0 z"
       id="path886"
       inkscape:connector-curvature="0" />
    <path
       style="fill:none;stroke:#000000;stroke-width:0.79535234px;stroke-linecap:butt;stroke-linejoin:miter;stroke-opacity:1"
       d="m 82.002,129.31 c 0,0 0,0 0,0 z"
       id="path888"
       inkscape:connector-curvature="0" />
    <path
       style="color:#000000;font-style:normal;font-variant:normal;font-weight:normal;font-stretch:normal;font-size:medium;line-height:normal;font-family:sans-serif;font-variant-ligatures:normal;font-variant-position:normal;font-variant-caps:normal;font-variant-numeric:normal;font-variant-alternates:normal;font-feature-settings:normal;text-indent:0;text-align:start;text-decoration:none;text-decoration-line:none;text-decoration-style:solid;text-decoration-color:#000000;letter-spacing:normal;word-spacing:normal;text-transform:none;writing-mode:lr-tb;direction:ltr;text-orientation:mixed;dominant-baseline:auto;baseline-shift:baseline;text-anchor:start;white-space:normal;shape-padding:0;clip-rule:nonzero;display:inline;overflow:visible;visibility:visible;opacity:1;isolation:auto;mix-blend-mode:normal;color-interpolation:sRGB;color-interpolation-filters:linearRGB;solid-color:#000000;solid-opacity:1;vector-effect:none;fill:#000000;fill-opacity:1;fill-rule:nonzero;stroke:none;stroke-width:4.90945816;stroke-linecap:butt;stroke-linejoin:miter;stroke-miterlimit:4;stroke-dasharray:none;stroke-dashoffset:0;stroke-opacity:1;color-rendering:auto;image-rendering:auto;shape-rendering:auto;text-rendering:auto;enable-background:accumulate"
       d="m 122.23438,-2.4589844 c -3.2002,0 -6.46972,0.3318542 -9.11133,2.65631014 -2.64161,2.32445596 -4.2027,6.19219426 -4.3711,11.53686126 l -0.002,0.04341 v 12.952871 h 4.77148 V 11.903695 c 0.64002,-4.7084893 2.24707,-6.8502036 3.65235,-8.0867592 1.40527,-1.2365555 2.74104,-1.9795134 4.76949,-2.6109523 3.00521,-0.93549321 5.23372,-0.75146549 7.14554,-0.54613187 1.91182,0.20533363 12.09909,1.93985507 12.09909,1.93985507 0,0 -1.25627,-1.550213 -5.17968,-3.34160165 -2.00161,-1.15139075 -7.51893,-1.71708945 -13.77384,-1.71708945 z"
       id="path896"
       inkscape:connector-curvature="0"
       sodipodi:nodetypes="csccccccszccc" />
    <path
       style="color:#000000;font-style:normal;font-variant:normal;font-weight:normal;font-stretch:normal;font-size:medium;line-height:normal;font-family:sans-serif;font-variant-ligatures:normal;font-variant-position:normal;font-variant-caps:normal;font-variant-numeric:normal;font-variant-alternates:normal;font-feature-settings:normal;text-indent:0;text-align:start;text-decoration:none;text-decoration-line:none;text-decoration-style:solid;text-decoration-color:#000000;letter-spacing:normal;word-spacing:normal;text-transform:none;writing-mode:lr-tb;direction:ltr;text-orientation:mixed;dominant-baseline:auto;baseline-shift:baseline;text-anchor:start;white-space:normal;shape-padding:0;clip-rule:nonzero;display:inline;overflow:visible;visibility:visible;opacity:1;isolation:auto;mix-blend-mode:normal;color-interpolation:sRGB;color-interpolation-filters:linearRGB;solid-color:#000000;solid-opacity:1;vector-effect:none;fill:#000000;fill-opacity:1;fill-rule:nonzero;stroke:none;stroke-width:4.77211332;stroke-linecap:butt;stroke-linejoin:miter;stroke-miterlimit:4;stroke-dasharray:none;stroke-dashoffset:0;stroke-opacity:1;color-rendering:auto;image-rendering:auto;shape-rendering:auto;text-rendering:auto;enable-background:accumulate"
       d="m 62.241856,-2.3693583 c -3.326745,0 -6.850345,0.7322189 -9.439943,3.011013 -2.589599,2.2787941 -3.99387,5.7890424 -4.158773,10.7344313 l -0.0017,0.03145 v 12.277109 h 5.184964 V 11.500464 c 0.08947,-5.2181849 1.014598,-7.0289567 1.846455,-7.8134843 1.479148,-1.7361476 3.313898,-2.9006951 6.514962,-2.9006951 z"
       id="path896-13"
       inkscape:connector-curvature="0"
       sodipodi:nodetypes="cccccccccc" />
  </g>
</svg>
