<?xml version="1.0" encoding="UTF-8" standalone="no"?>
<svg
   xmlns:dc="http://purl.org/dc/elements/1.1/"
   xmlns:cc="http://creativecommons.org/ns#"
   xmlns:rdf="http://www.w3.org/1999/02/22-rdf-syntax-ns#"
   xmlns:svg="http://www.w3.org/2000/svg"
   xmlns="http://www.w3.org/2000/svg"
   xmlns:sodipodi="http://sodipodi.sourceforge.net/DTD/sodipodi-0.dtd"
   xmlns:inkscape="http://www.inkscape.org/namespaces/inkscape"
   sodipodi:docname="main-ilu.svg"
   inkscape:version="1.0rc1 (09960d6f05, 2020-04-09)"
   id="svg8"
   version="1.1"
   viewBox="0 0 244.53245 175.93925"
   height="664.96722"
   width="924.21716">
  <defs
     id="defs2" />
  <sodipodi:namedview
     inkscape:snap-bbox="true"
     inkscape:window-maximized="1"
     inkscape:window-y="-8"
     inkscape:window-x="-8"
     inkscape:window-height="1017"
     inkscape:window-width="1920"
     units="px"
     inkscape:pagecheckerboard="true"
     inkscape:showpageshadow="false"
     showborder="true"
     showgrid="false"
     inkscape:document-rotation="0"
     inkscape:current-layer="layer1"
     inkscape:document-units="mm"
     inkscape:cy="822.85714"
     inkscape:cx="471.42857"
     inkscape:zoom="0.35"
     inkscape:pageshadow="2"
     inkscape:pageopacity="0.0"
     borderopacity="1.0"
     bordercolor="#666666"
     pagecolor="#ffffff"
     id="base" />
  <metadata
     id="metadata5">
    <rdf:RDF>
      <cc:Work
         rdf:about="">
        <dc:format>image/svg+xml</dc:format>
        <dc:type
           rdf:resource="http://purl.org/dc/dcmitype/StillImage" />
        <dc:title />
      </cc:Work>
    </rdf:RDF>
  </metadata>
  <g
     id="layer1"
     inkscape:groupmode="layer"
     inkscape:label="Layer 1"
     transform="translate(-84.239512,-91.866923)">
    <circle
       style="fill:none;stroke-width:1.452;stroke:#3f3d56;stroke-opacity:1;stroke-miterlimit:4;stroke-dasharray:none"
       id="path894"
       cy="149.69728"
       cx="302.70975"
       r="19.563162" />
    <polygon
       style="fill:#f4cece;fill-opacity:1"
       points="75.806,632.631 68.9,569.318 47.028,569.318 51.633,632.631 "
       fill="#ffb8b8"
       id="polygon931-6"
       transform="matrix(-0.26385518,-0.01961584,-0.01961584,0.26385518,147.14346,91.815798)" />
    <path
       sodipodi:nodetypes="cssssssscccc"
       inkscape:connector-curvature="0"
       d="m 131.77565,179.57441 c 0,0 -3.52614,27.09999 -5.77758,32.73544 -2.25144,5.63545 -1.33367,6.41111 -1.09768,7.34489 0.23599,0.93378 0.16975,2.32809 0.0569,3.84675 -0.11291,1.51867 -0.51756,19.62012 -1.28308,21.70109 -0.76553,2.08098 1.1299,8.7037 -0.71512,8.87194 -1.84499,0.16825 -8.39706,0.039 -8.5653,-1.80596 -0.16825,-1.84498 2.3929,-20.24304 1.26829,-21.54829 -1.12461,-1.30525 -1.62468,-17.95304 -1.62468,-17.95304 l -1.09944,-17.49021 -3.48058,-19.17057 z"
       fill="#2f2e41"
       id="path935-2"
       style="stroke-width:0.264583" />
    <path
       inkscape:connector-curvature="0"
       d="m 122.06861,255.57709 c 0.65844,1.04979 0.45101,3.12831 1.02162,4.22831 0.49461,0.9535 2.00776,1.74826 2.65115,2.60841 v 0 c 0.57128,1.14155 0.16344,2.33031 -0.56093,3.38141 -0.5827,0.84554 -0.86097,1.36176 -1.8751,1.52313 -1.28179,0.20398 -1.59274,0.70463 -2.85004,0.38247 -1.25729,-0.32216 -2.28415,-0.80403 -2.64836,-2.04979 -0.0666,-0.31139 -1.42726,-1.67164 -1.42726,-1.67164 -0.58956,-1.41097 -2.75472,-1.58672 -3.36107,-2.99056 -0.42434,-0.98243 0.1154,-2.09171 0.64163,-3.02351 l 1.60741,-2.84594 c 0.53343,-0.94444 2.35908,-0.24277 3.35008,-0.40491 1.29247,-0.21146 2.63003,-0.45088 3.45087,0.86262 z"
       fill="#2f2e41"
       id="path953-4"
       style="stroke-width:0.264583"
       sodipodi:nodetypes="csccsssccscssc" />
    <g
       id="g877"
       transform="matrix(0.26458333,0,0,0.26458333,93.433619,157.088)">
      <circle
         cx="829.16101"
         cy="9.3008308"
         r="60.306801"
         fill="#f2f2f2"
         id="circle52"
         style="fill:#08b2e3;fill-opacity:1" />
      <path
         d="M 817.23722,-12.63768 H 557.06762 V -18 h -117.971 v 5.36232 H 177.85453 A 17.5985,17.5985 0 0 0 160.25602,4.96083 v 356.25219 a 17.59855,17.59855 0 0 0 17.59851,17.5986 h 639.38269 a 17.59855,17.59855 0 0 0 17.5985,-17.59857 V 4.96083 a 17.5985,17.5985 0 0 0 -17.5985,-17.59851 z"
         fill="#3f3d56"
         id="path44"
         inkscape:connector-curvature="0"
         style="fill:#495867;fill-opacity:1" />
      <rect
         x="184.82745"
         y="10.389402"
         width="622.414"
         height="355.98737"
         fill="#08b2e3"
         id="rect46"
         ry="0" />
      <circle
         cx="497.51471"
         cy="-4.6942577"
         r="6.4347801"
         fill="#08b2e3"
         id="circle48" />
      <rect
         x="224.07597"
         y="39.929665"
         width="24.49173"
         height="24.49173"
         fill="#f2f2f2"
         id="rect68" />
      <path
         d="m 259.9389,75.792544 h -29.7401 v -29.74 h 29.7401 z m -28.447,-1.293 h 27.1539 v -27.15391 h -27.1539 z"
         fill="#3f3d56"
         id="path70"
         inkscape:connector-curvature="0" />
      <path
         d="m 852.45152,365.94201 h -61.2293 v -4.41153 c 2e-5,-0.48309 -0.39161,-0.87473 -0.8747,-0.87471 h -20.9929 c -0.48309,-1e-5 -0.87472,0.39162 -0.8747,0.87471 v 4.41153 h -13.1206 v -4.41153 c 2e-5,-0.48309 -0.39161,-0.87472 -0.8747,-0.87471 h -20.9929 c -0.48309,-1e-5 -0.87472,0.39162 -0.8747,0.87471 v 4.41153 h -13.12058 v -4.41153 c 2e-5,-0.4831 -0.39161,-0.87473 -0.87471,-0.87471 h -20.99291 c -0.48309,-1e-5 -0.87472,0.39162 -0.8747,0.87471 v 4.41153 h -13.12057 v -4.41153 c 2e-5,-0.48309 -0.39161,-0.87472 -0.8747,-0.87471 h -20.99293 c -0.48309,-2e-5 -0.87472,0.39162 -0.8747,0.87471 v 4.41153 h -13.12055 v -4.41153 c 2e-5,-0.4831 -0.39161,-0.87473 -0.87471,-0.87471 h -20.9929 c -0.4831,-2e-5 -0.87473,0.39161 -0.87471,0.87471 v 4.41153 h -13.12057 v -4.41153 c 2e-5,-0.48309 -0.39161,-0.87472 -0.8747,-0.87471 h -20.99291 c -0.48309,-1e-5 -0.87472,0.39162 -0.8747,0.87471 v 4.41153 h -13.12055 v -4.41153 c 2e-5,-0.48309 -0.39161,-0.87472 -0.8747,-0.87471 H 410.72575 c -0.48309,-1e-5 -0.87472,0.39162 -0.8747,0.87471 v 4.41153 h -13.12057 v -4.41153 c 2e-5,-0.4831 -0.39161,-0.87473 -0.87471,-0.87471 h -20.99285 c -0.4831,-2e-5 -0.87473,0.39161 -0.87471,0.87471 v 4.41153 h -13.12062 v -4.41153 c 2e-5,-0.48309 -0.39161,-0.87473 -0.8747,-0.87471 h -20.99291 c -0.48309,-1e-5 -0.87472,0.39162 -0.8747,0.87471 v 4.41153 h -13.12057 v -4.41153 c 2e-5,-0.48309 -0.39161,-0.87472 -0.8747,-0.87471 H 303.1371 c -0.4831,-2e-5 -0.87473,0.39161 -0.87471,0.87471 v 4.41153 h -13.12056 v -4.41153 c 2e-5,-0.4831 -0.39161,-0.87473 -0.87471,-0.87471 h -20.99291 c -0.48309,-1e-5 -0.87472,0.39162 -0.8747,0.87471 v 4.41153 h -13.12059 v -4.41153 c 2e-5,-0.48309 -0.39161,-0.87472 -0.8747,-0.87471 h -20.99289 c -0.48309,-2e-5 -0.87472,0.39162 -0.8747,0.87471 v 4.41153 h -13.12057 v -4.41153 c 2e-5,-0.4831 -0.39161,-0.87473 -0.87471,-0.87471 h -20.9929 c -0.4831,-2e-5 -0.87473,0.39161 -0.87471,0.87471 v 4.41153 h -40.23641 c -11.59406,1e-5 -20.9929,9.39885 -20.9929,20.99291 v 1.4925 c 0,11.59404 9.39886,20.99284 20.9929,20.99285 h 698.01419 c 11.59403,-1e-5 20.9929,-9.39882 20.9929,-20.99285 v -1.4925 c 0,-11.59406 -9.39884,-20.99289 -20.9929,-20.99291 z"
         fill="#3f3d56"
         id="path72"
         inkscape:connector-curvature="0"
         style="fill:#495867;fill-opacity:1"
         sodipodi:nodetypes="scsccsccsccsccsccsccsccsccsccsccsccsccsccsccsccsccsccsccsccsccsccsccsccsccsccscsssccsss" />
    </g>
    <g
       id="g1043"
       transform="matrix(0.26385518,0.01961584,-0.01961584,0.26385518,89.320791,90.037547)">
      <path
         style="fill:#3a3a3a;fill-opacity:1"
         sodipodi:nodetypes="cccccccssscsscccccsccc"
         id="path927"
         fill="#2f2e41"
         transform="translate(-244.40605,-115.15866)"
         d="m 339.06751,115.15881 c -1.72785,-0.14186 -3.45803,0.24464 -4.96126,1.1083 -1.476,1.0108 -2.40629,2.78162 -3.35588,4.42947 -3.63069,6.37562 -8.5459,11.92773 -14.43428,16.30464 -4.28894,3.142 -9.74169,7.05966 -9.00789,12.85269 0.38711,1.91311 1.09386,3.74729 2.09058,5.4255 3.9566,7.987 14.75357,14.15926 13.69156,23.27309 3.931,-6.58092 -1.327,-9.835 2.604,-16.41586 1.87205,-3.134 5.12412,-6.67168 7.95054,-4.70353 0.94637,0.659 1.56777,1.84095 2.55314,2.41917 2.35122,1.37972 4.85259,-1.258 6.93387,-3.12633 7.17685,-6.44263 17.383,-4.7548 26.31387,-2.74743 4.21624,0.94767 8.8473,2.191 11.33971,6.2207 3.277,5.29821 -2.17811,9.55247 -4.72807,17.01049 -0.56955,2.20538 2.60349,5.81128 4.86864,5.57219 2.67975,-0.26434 4.48849,-1.99105 4.64707,-3.16699 3.37154,0.12 1.70002,-3.37571 3.14461,-6.8864 0.44151,-1.38903 3.18195,-8.27679 3.18195,-8.27679 -1.84028,-10.53242 -0.11824,-5.97821 1.53985,-11.59095 1.65809,-5.61274 1.67125,-8.08612 -1.1269,-13.06242 -3.666,-4.45557 -7.89682,-7.8004 -9.32916,-9.09925 -15.87901,-15.36675 -23.92087,-15.5631 -43.91595,-15.54029 z"
         inkscape:connector-curvature="0" />
      <path
         style="fill:#f4cece;fill-opacity:1"
         id="path929"
         fill="#ffb8b8"
         transform="translate(-244.40605,-115.15866)"
         d="m 326.54375,190.06386 c 0,0 3.4534,28.7784 -9.20909,31.08068 -12.66249,2.30228 11.51136,41.4409 11.51136,41.4409 l 57.55681,6.90682 -13.81364,-46.04545 c 0,0 -9.20909,-3.45341 -3.4534,-26.47613 5.75569,-23.02272 -42.59204,-6.90682 -42.59204,-6.90682 z"
         inkscape:connector-curvature="0" />
      <polygon
         style="fill:#f4cece;fill-opacity:1"
         id="polygon931"
         fill="#ffb8b8"
         points="51.633,632.631 75.806,632.631 68.9,569.318 47.028,569.318 " />
      <path
         id="path935"
         fill="#2f2e41"
         d="m 274.16705,442.73826 c 0,0 1.15113,66.7659 8.058,88.63749 6.90687,21.87159 5.75568,23.02272 4.60455,26.47613 -1.15113,3.45341 -2.30228,1.15114 -2.30228,6.90682 0,5.75568 -1.23084,110.62401 1.07143,118.68197 2.30227,8.05796 -1.54967,47.58588 5.35714,48.73701 6.90681,1.15113 31.28149,2.5 32.43263,-4.40682 1.15114,-6.90682 -6.70909,-9.20909 -2.10454,-13.81363 4.60455,-4.60454 10.43993,-141.14058 10.43993,-141.14058 l 8.03469,-65.61476 16.27859,-70.25057 z"
         inkscape:connector-curvature="0"
         transform="translate(-244.40605,-115.15866)"
         sodipodi:nodetypes="cssssssscccc" />
      <ellipse
         ry="35.748196"
         rx="28.191902"
         cx="105.99865"
         cy="53.607372"
         style="fill:#f4cece;fill-opacity:1"
         id="circle939"
         fill="#ffb8b8" />
      <path
         id="path941"
         fill="#08b2e3"
         transform="translate(-244.40605,-115.15866)"
         d="m 307.55,235.53374 c 0,0 56.40567,11.51136 70.21931,-6.90682 13.81364,-18.41818 19.56931,51.80113 19.56931,51.80113 l 6.90682,73.67272 -3.93166,84.57548 c 0,0 -60.53197,-0.54253 -77.79901,2.91087 -17.26704,3.4534 -43.74318,5.75569 -43.74318,5.75569 0,0 8.058,-127.77613 8.058,-130.0784 0,-2.30227 20.72041,-81.73067 20.72041,-81.73067 z"
         inkscape:connector-curvature="0"
         sodipodi:nodetypes="cscccscsc" />
      <path
         id="path943"
         fill="#2f2e41"
         transform="translate(-244.40605,-115.15866)"
         d="m 324.70433,213.94456 c 0,0 -12.54979,-7.18923 -16.0032,-0.28241 -3.45341,6.90682 -35.68522,24.17385 -39.13863,24.17385 -3.45341,0 6.90682,95.54431 2.30227,107.05567 -4.60455,11.51136 -26.47613,95.54433 -13.81363,102.45114 12.6625,6.90681 3.45341,-6.90682 16.11591,10.36022 12.6625,17.26704 74.82385,17.267 78.27726,10.36023 3.45341,-6.90677 -27.62727,-58.708 -21.87159,-107.05567 5.75568,-48.34767 14.96477,-115.11362 6.90682,-124.32271 -8.05795,-9.20909 -12.77521,-22.74032 -12.77521,-22.74032 z"
         inkscape:connector-curvature="0"
         style="fill:#414059;fill-opacity:1" />
      <path
         style="fill:#3a3a3a;fill-opacity:1"
         sodipodi:nodetypes="cccccccssssssccccsccc"
         id="path949"
         fill="#2f2e41"
         transform="translate(-244.40605,-115.15866)"
         d="m 340.74981,124.19457 c -1.39196,-0.10314 -2.78621,0.16729 -4.03868,0.78334 -1.13243,0.82706 -2.06577,1.89669 -2.73182,3.13072 -3.07039,4.61855 -7.07277,8.54392 -11.7501,11.524 -3.49138,2.22077 -7.93014,4.98972 -7.3328,9.0842 0.32426,1.37281 0.90138,2.67322 1.70182,3.8347 3.23196,5.70222 4.51858,12.30202 3.66519,18.80068 l 9.60011,-13.954 c 1.52393,-2.21507 4.17125,-4.7155 6.47207,-3.32442 0.77039,0.46577 1.27623,1.30117 2.07836,1.70985 1.914,0.97518 3.95021,-0.88912 5.64447,-2.20967 5.84225,-4.55361 14.15049,-3.36066 21.42059,-1.94187 3.43219,0.66981 7.20207,1.54859 9.231,4.39676 3.37169,4.73311 -0.149,11.5721 1.81882,17.04 1.11289,-0.77917 -0.21578,1.34129 0,0 2.74457,0.0848 8.18602,-3.50217 9.36197,-5.98355 0.35767,-0.97244 0.54827,-1.99837 0.56374,-3.03439 0.43161,-4.16809 2.46907,-7.97065 3.81883,-11.93769 1.34976,-3.96704 1.93666,-8.61616 -0.34116,-12.13338 -0.8333,-1.19173 -1.83903,-2.25304 -2.98426,-3.14917 -12.92622,-10.8611 -29.92132,-12.65223 -46.19815,-12.63611 z"
         inkscape:connector-curvature="0" />
      <path
         id="path953"
         fill="#2f2e41"
         transform="translate(-244.40605,-115.15866)"
         d="m 293.02894,739.422 c -2.77592,3.77228 -2.21935,9.16459 -4.67828,13.15075 -2.13144,3.45526 -6.14837,5.26695 -8.81439,8.32869 a 22.32616,22.32616 0 0 0 -2.26617,3.25987 c -2.47311,4.14255 -4.4833,9.45174 -2.04761,13.61641 1.95936,3.35022 6.07786,4.65961 9.855,5.552 4.77407,1.128 9.73436,2.03071 14.56354,1.16876 4.82918,-0.86195 9.54882,-3.819 11.27067,-8.41239 a 32.50011,32.50011 0 0 1 1.2051,-3.4007 c 2.61747,-5.15294 10.82749,-5.20864 13.50628,-10.33 1.87466,-3.584 0.15138,-7.91623 -1.57118,-11.57578 l -5.26109,-11.1771 c -1.74592,-3.70919 -8.82362,-1.57608 -12.51339,-2.46492 -4.81224,-1.15915 -9.78658,-2.43633 -13.24848,2.28441 z"
         inkscape:connector-curvature="0" />
      <path
         style="fill:#f4cece;fill-opacity:1"
         id="path955"
         fill="#ffb8b8"
         transform="translate(-244.40605,-115.15866)"
         d="m 254.59773,380.5769 48.34772,74.82386 c 0,0 29.92954,37.98749 39.13863,20.72045 9.20909,-17.26704 -32.23181,-46.04545 -32.23181,-46.04545 L 278.77159,372.519 Z"
         inkscape:connector-curvature="0" />
      <path
         id="path957"
         fill="#2f2e41"
         transform="translate(-244.40605,-115.15866)"
         d="M 278.77159,240.13828 269.5625,237.836 c 0,0 -18.41818,5.75568 -23.02272,29.92954 -4.60454,24.17386 -1.15114,120.86931 4.60454,122.02044 5.75568,1.15113 28.42725,-16.83663 32.05624,-13.02286 3.62899,3.81377 -7.88238,-15.75554 -4.429,-26.11577 3.45338,-10.36023 3e-5,-110.50907 3e-5,-110.50907 z"
         inkscape:connector-curvature="0"
         style="fill:#414059;fill-opacity:1" />
    </g>
    <path
       inkscape:connector-curvature="0"
       d="m 118.43729,119.1443 c 0,0 3.45235,-1.65074 4.22807,0.23942 0.77571,1.89016 8.94154,7.0784 9.85274,7.14614 0.9112,0.0677 -3.69659,25.07439 -2.70745,28.20204 0.98913,3.12765 5.11167,25.72922 1.63512,27.30322 -3.47654,1.57402 -0.77571,-1.89014 -4.45549,2.41748 -3.67977,4.30761 -9.76736,-7.66927 -10.54307,-9.55941 -0.77572,-1.89013 -1.98064,-11.18736 -2.44308,-17.06063 -0.29852,-3.79138 -1.69049,-30.66687 0.61629,-32.93867 2.30678,-2.2718 3.81687,-5.74957 3.81687,-5.74957 z"
       fill="#2f2e41"
       id="path943-0"
       style="fill:#414059;fill-opacity:1;stroke-width:0.264583"
       sodipodi:nodetypes="csssssssscc" />
    <path
       inkscape:connector-curvature="0"
       d="m 152.14635,154.09448 -17.41341,15.88507 c 0,0 -10.2181,7.70184 -11.4104,2.66327 -1.19229,-5.03856 11.35029,-9.60831 11.35029,-9.60831 l 11.8317,-12.6311 z"
       fill="#ffb8b8"
       id="path955-6"
       style="fill:#f4cece;fill-opacity:1;stroke-width:0.264583" />
    <path
       inkscape:connector-curvature="0"
       d="m 122.79881,127.10137 1.56047,-1.96797 c 0,0 4.7916,-1.7627 9.65566,2.56559 2.99185,2.6623 9.48774,12.49613 14.24381,19.50766 2.97621,4.3876 5.61607,7.32508 5.22282,7.77527 -1.0217,1.16962 -11.51286,-1.4045 -11.6591,-0.0193 -0.1462,1.38519 1.19163,-3.06412 -1.2034,-4.68044 -2.39505,-1.61632 -17.82026,-23.18079 -17.82026,-23.18079 z"
       fill="#2f2e41"
       id="path957-0"
       style="fill:#414059;fill-opacity:1;stroke-width:0.264583"
       sodipodi:nodetypes="ccsssssc" />
    <rect
       x="-124.91285"
       y="221.12335"
       width="7.4083333"
       height="7.4083333"
       transform="rotate(-84.927597)"
       fill="#08b2e3"
       id="rect36-5"
       style="stroke-width:0.264583" />
    <path
       sodipodi:nodetypes="cccccc"
       d="m 214.56246,129.06642 -1.05729,11.91147 -11.91149,-1.05727 1.0573,-11.91149 8.82141,0.78301 z"
       fill="#3f3d56"
       id="path38-1"
       inkscape:connector-curvature="0"
       style="fill:none;stroke:#3f3d56;stroke-width:1.052;stroke-miterlimit:4;stroke-dasharray:none;stroke-opacity:1" />
    <g
       id="f3c2397c-d780-4cc6-97d8-1503d8277a2c-1"
       data-name="Group 13"
       transform="matrix(0.31255888,0,0,0.53991516,107.84284,118.24422)"
       style="fill:#495867;fill-opacity:1">
      <rect
         id="ad41612f-86f7-46b2-a964-3a5da7bcf3cf-0"
         data-name="Rectangle 55"
         x="437.40692"
         y="176.36275"
         width="29.75235"
         height="7.1626"
         fill="#08b2e3"
         style="fill:#495867;fill-opacity:1" />
      <rect
         id="b9a0b375-cc2a-4c59-8850-661af54e4f62-9"
         data-name="Rectangle 56"
         x="559.72217"
         y="176.36275"
         width="10.46842"
         height="7.1626"
         fill="#08b2e3"
         style="fill:#495867;fill-opacity:1" />
      <rect
         id="e174c2ab-9bc5-41ec-b37c-b06fbf8a9878-7"
         data-name="Rectangle 57"
         x="580.659"
         y="176.36275"
         width="10.46842"
         height="7.1626"
         fill="#08b2e3"
         style="fill:#495867;fill-opacity:1" />
      <rect
         id="ba2479ac-4c7d-43b4-a028-73b1e20e4002-9"
         data-name="Rectangle 58"
         x="477.62769"
         y="176.36275"
         width="71.075058"
         height="7.1626"
         fill="#08b2e3"
         style="fill:#495867;fill-opacity:1" />
      <rect
         id="ac60ef86-00f2-480b-8171-28b6fdfc1958-9"
         data-name="Rectangle 59"
         x="399.94098"
         y="222.6442"
         width="29.75235"
         height="7.1626"
         fill="#08b2e3"
         style="fill:#495867;fill-opacity:1" />
      <rect
         id="b3d8298d-cd65-487a-8b19-4cee946356e7-4"
         data-name="Rectangle 60"
         x="522.25623"
         y="222.6442"
         width="10.46842"
         height="7.1626"
         fill="#08b2e3"
         style="fill:#495867;fill-opacity:1" />
      <rect
         id="ed27f15f-f0c4-4569-8330-a6688f8e356c-8"
         data-name="Rectangle 61"
         x="543.19305"
         y="222.6442"
         width="10.46842"
         height="7.1626"
         fill="#08b2e3"
         style="fill:#495867;fill-opacity:1" />
      <rect
         id="f685c005-adaf-4d60-acda-005b037d82a6-0"
         data-name="Rectangle 62"
         x="440.16177"
         y="222.6442"
         width="71.075058"
         height="7.1626"
         fill="#08b2e3"
         style="fill:#495867;fill-opacity:1" />
      <rect
         id="eca7c7fc-83f8-48ca-a588-6606db47af3f-7"
         data-name="Rectangle 63"
         x="522.80719"
         y="192.34088"
         width="29.75235"
         height="7.1626"
         fill="#08b2e3"
         style="fill:#495867;fill-opacity:1" />
      <rect
         id="a71b5b2f-f8b9-481d-a301-5e3357e5fe42-6"
         data-name="Rectangle 64"
         x="563.02795"
         y="192.34088"
         width="29.75235"
         height="7.1626"
         fill="#08b2e3"
         style="fill:#495867;fill-opacity:1" />
      <rect
         id="abb3a25a-f854-41fc-8391-e6ad9fbe2417-0"
         data-name="Rectangle 66"
         x="399.94098"
         y="192.34088"
         width="10.46842"
         height="7.1626"
         fill="#08b2e3"
         style="fill:#495867;fill-opacity:1" />
      <rect
         id="add2b425-b775-4eb5-9c25-8c4c14f957c9-0"
         data-name="Rectangle 67"
         x="420.87784"
         y="192.34088"
         width="10.46842"
         height="7.1626"
         fill="#08b2e3"
         style="fill:#495867;fill-opacity:1" />
      <rect
         id="b7159612-3b84-4b0b-a885-612eaab04c06-3"
         data-name="Rectangle 68"
         x="441.81467"
         y="192.34088"
         width="71.075058"
         height="7.1626"
         fill="#08b2e3"
         style="fill:#495867;fill-opacity:1" />
      <rect
         id="edfc7301-4de5-47dc-80e2-1ae2da982d6d-0"
         data-name="Rectangle 69"
         x="461.0986"
         y="207.76802"
         width="29.75235"
         height="7.1626"
         fill="#08b2e3"
         style="fill:#495867;fill-opacity:1" />
      <rect
         id="e1009f91-6275-4375-80fa-0d778e331fdc-7"
         data-name="Rectangle 70"
         x="420.87784"
         y="207.76802"
         width="29.75235"
         height="7.1626"
         fill="#08b2e3"
         style="fill:#495867;fill-opacity:1" />
      <rect
         id="a060fb9f-1f1a-4862-9a69-16dd49199e18-3"
         data-name="Rectangle 71"
         x="399.94101"
         y="207.76802"
         width="10.46842"
         height="7.1626"
         fill="#08b2e3"
         style="fill:#495867;fill-opacity:1" />
      <rect
         id="b6754d5f-104f-449c-b9a9-cf9ac82bf5fe-5"
         data-name="Rectangle 73"
         x="582.31189"
         y="207.76802"
         width="10.46842"
         height="7.1626"
         fill="#08b2e3"
         style="fill:#495867;fill-opacity:1" />
      <rect
         id="e6ed1ccd-2cfd-450f-a339-07df3a1ee6bb-7"
         data-name="Rectangle 74"
         x="500.7684"
         y="207.76802"
         width="71.075058"
         height="7.1626"
         fill="#08b2e3"
         style="fill:#495867;fill-opacity:1" />
    </g>
    <path
       sodipodi:nodetypes="cccccsccczsscccccccc"
       style="fill:#3a3a3a;fill-opacity:1;stroke-width:0.264583"
       inkscape:connector-curvature="0"
       d="m 110.74893,114.90456 c 0.30729,0.40016 -0.53186,-0.19852 -1.03362,-0.93052 0,0 0.53126,-0.33814 -0.59307,-0.81742 l -0.44046,-0.83938 c 0.35276,-1.75071 0.51551,-2.92848 0.0565,-5.31238 1.16631,1.6593 0.32237,2.824 1.48863,4.48328 0.55543,0.7902 0.73589,0.75577 0.73589,0.75577 0,0 1.03857,-0.50109 1.46379,-0.28848 0,0 0.17755,0.61876 0.76335,1.07091 0,0 3.01083,0.48545 3.92503,0.64208 0.9142,0.15663 1.54682,-1.10616 1.54682,-1.10616 0.40299,-0.23267 1.30294,0.50113 1.30294,0.50113 0.13719,-0.61798 2.2687,-2.57077 2.96556,-3.02459 -0.32719,1.24562 -0.70328,2.85839 -0.63837,3.16554 0.88724,-0.0978 -2.14212,0.68399 -1.69209,1.58197 0.14374,0.35784 -2.38746,0.48857 -2.35422,0.87277 0,0 -3.74598,-0.42158 -2.86429,0.55912 l -2.32883,-0.51796 c -0.73214,-0.0113 -1.64493,-0.61257 -1.64493,-0.61257 z"
       fill="#2f2e41"
       id="path927-1" />
    <rect
       style="fill:#495867;fill-opacity:1;stroke-width:0.183973"
       x="148.10379"
       y="212.1456"
       width="74.65213"
       height="36.335835"
       fill="#3f3d56"
       id="rect48" />
    <rect
       style="stroke-width:0.183973"
       x="161.64687"
       y="224.38072"
       width="7.560154"
       height="0.60229516"
       fill="#08b2e3"
       id="rect50" />
    <rect
       style="stroke-width:0.183973"
       x="171.72707"
       y="224.38072"
       width="7.560154"
       height="0.60229516"
       fill="#08b2e3"
       id="rect52" />
    <rect
       style="stroke-width:0.183973"
       x="186.37486"
       y="229.95197"
       width="7.560154"
       height="0.60229516"
       fill="#08b2e3"
       id="rect54" />
    <rect
       style="stroke-width:0.183973"
       x="196.61258"
       y="229.95197"
       width="7.560154"
       height="0.60229516"
       fill="#08b2e3"
       id="rect56" />
    <rect
       style="stroke-width:0.183973"
       x="181.9648"
       y="224.38072"
       width="22.207952"
       height="0.60229516"
       fill="#08b2e3"
       id="rect58" />
    <rect
       style="stroke-width:0.183973"
       x="161.64687"
       y="229.95197"
       width="22.207952"
       height="0.60229516"
       fill="#08b2e3"
       id="rect60" />
    <rect
       style="stroke-width:0.183973"
       x="161.64687"
       y="235.52321"
       width="22.207952"
       height="0.60229516"
       fill="#08b2e3"
       id="rect62" />
    <rect
       style="stroke-width:0.183973"
       x="188.73743"
       y="235.52321"
       width="15.435314"
       height="0.60229516"
       fill="#08b2e3"
       id="rect64" />
    <polygon
       transform="matrix(0.18815819,0,0,0.17988036,49.326762,161.81323)"
       points="588.48,359.136 585.652,361.964 571.516,347.829 585.652,333.693 588.48,336.521 577.172,347.829 "
       fill="#08b2e3"
       id="polygon66" />
    <polygon
       transform="matrix(0.18815819,0,0,0.17988036,49.326762,161.81323)"
       points="875.172,413.12 861.036,427.257 858.208,424.429 869.516,413.12 858.208,401.813 861.036,398.985 "
       fill="#08b2e3"
       id="polygon68" />
    <rect
       style="stroke-width:0.184001"
       x="-171.47128"
       y="269.42126"
       width="5.2125168"
       height="0.74991506"
       transform="matrix(0.3021871,-0.95324863,0.96049891,0.27828374,0,0)"
       fill="#08b2e3"
       id="rect70" />
    <rect
       style="fill:#495867;fill-opacity:1;stroke-width:0.274292"
       x="217.76535"
       y="163.14967"
       width="77.914055"
       height="40.375004"
       fill="#3f3d56"
       id="rect96" />
    <rect
       style="stroke-width:0.274292"
       x="232.0797"
       y="178.60097"
       width="49.097462"
       height="1.3390669"
       fill="#ffffff"
       id="rect98" />
    <rect
       style="stroke-width:0.274292"
       x="232.0797"
       y="183.95723"
       width="49.097462"
       height="1.3390669"
       fill="#ffffff"
       id="rect100" />
    <rect
       style="stroke-width:0.274292"
       x="232.0797"
       y="189.31349"
       width="49.097462"
       height="1.3390669"
       fill="#ffffff"
       id="rect102" />
    <rect
       style="stroke-width:0.274292"
       x="217.76535"
       y="163.19344"
       width="77.914055"
       height="4.4979167"
       fill="#08b2e3"
       id="rect104" />
    <ellipse
       ry="1.638382"
       rx="1.760832"
       style="stroke-width:0.274292"
       cx="220.94798"
       cy="165.57466"
       fill="#e6e6e6"
       id="circle106" />
    <ellipse
       ry="1.638382"
       rx="1.760832"
       style="stroke-width:0.274292"
       cx="225.72737"
       cy="165.57466"
       fill="#e6e6e6"
       id="circle108" />
    <ellipse
       ry="1.638382"
       rx="1.760832"
       style="stroke-width:0.274292"
       cx="230.50679"
       cy="165.57466"
       fill="#e6e6e6"
       id="circle110" />
    <g
       id="g1542"
       transform="matrix(0.06518452,0,0,0.06518452,144.67007,160.18772)">
      <path
         id="path1382"
         fill="#f2f2f2"
         transform="translate(-56,-36.85319)"
         d="M 970.78395,311.69254 C 922.96389,123.65314 822.20979,169.40154 628.26151,163.9572 525.72688,161.07894 399.81953,144.9184 321.26397,263.9184 180.83742,476.64376 303.62954,546.87192 407.5475,616.72328 457.75248,650.538 496.92904,693.2176 552.05119,720.3509 692.95506,714.75298 805.76742,673.80755 879.71573,650.01988 1037.3057,599.32639 1002.6368,436.94536 970.78395,311.69254 Z"
         inkscape:connector-curvature="0"
         sodipodi:nodetypes="sssccss" />
      <path
         id="path1408"
         fill="#ffb9b9"
         transform="translate(-56,-36.85319)"
         d="m 921.53291,419.70575 c 0,0 -30.78848,-23.37612 -33.12545,-14.80723 -2.33697,8.56889 22.59069,28.04361 22.59069,28.04361 z"
         inkscape:connector-curvature="0" />
      <path
         id="path1410"
         opacity="0.1"
         transform="translate(-56,-36.85319)"
         d="m 921.53291,419.70575 c 0,0 -30.78848,-23.37612 -33.12545,-14.80723 -2.33697,8.56889 22.59069,28.04361 22.59069,28.04361 z"
         inkscape:connector-curvature="0" />
      <polygon
         id="polygon1422"
         fill="#08b2e3"
         points="719.6,292.194 749.6,262.294 878,390.294 749.6,518.294 719.6,488.394 818,390.294 " />
      <path
         id="path1448"
         fill="#08b2e3"
         transform="translate(-56,-36.85319)"
         d="m 494.6,434.14681 h 40 v -40 h -40 z m 200.8,-40 h -40 v 40 h 40 z m -120.4,40 h 40 v -40 h -40 z"
         inkscape:connector-curvature="0" />
      <polygon
         id="polygon1458"
         fill="#08b2e3"
         points="384.3,291.194 354.3,261.294 226,389.294 354.4,517.294 384.4,487.394 285.9,389.294 " />
    </g>
  </g>
</svg>
