<?xml version="1.0" encoding="UTF-8" standalone="no"?>
<svg
   xmlns:dc="http://purl.org/dc/elements/1.1/"
   xmlns:cc="http://creativecommons.org/ns#"
   xmlns:rdf="http://www.w3.org/1999/02/22-rdf-syntax-ns#"
   xmlns:svg="http://www.w3.org/2000/svg"
   xmlns="http://www.w3.org/2000/svg"
   xmlns:sodipodi="http://sodipodi.sourceforge.net/DTD/sodipodi-0.dtd"
   xmlns:inkscape="http://www.inkscape.org/namespaces/inkscape"
   id="aaafdec0-95c8-49a3-a8f8-64216c6da511"
   data-name="Layer 1"
   width="751.36395"
   height="580.33508"
   viewBox="0 0 751.36393 580.33509"
   version="1.1"
   sodipodi:docname="message-ilu.svg"
   inkscape:version="1.0rc1 (09960d6f05, 2020-04-09)">
  <metadata
     id="metadata1358">
    <rdf:RDF>
      <cc:Work
         rdf:about="">
        <dc:format>image/svg+xml</dc:format>
        <dc:type
           rdf:resource="http://purl.org/dc/dcmitype/StillImage" />
      </cc:Work>
    </rdf:RDF>
  </metadata>
  <defs
     id="defs1356" />
  <sodipodi:namedview
     inkscape:document-rotation="0"
     pagecolor="#ffffff"
     bordercolor="#666666"
     borderopacity="1"
     objecttolerance="10"
     gridtolerance="10"
     guidetolerance="10"
     inkscape:pageopacity="0"
     inkscape:pageshadow="2"
     inkscape:window-width="640"
     inkscape:window-height="480"
     id="namedview1354"
     showgrid="false"
     inkscape:current-layer="layer2" />
  <title
     id="title1279">message sent</title>
  <g
     inkscape:groupmode="layer"
     id="layer1"
     inkscape:label="message_circle"
     transform="translate(-144.82847,-28.656487)">
    <circle
       style="fill:#495867;fill-opacity:1"
       id="circle283"
       fill="#3f3d56"
       r="99.959999"
       cy="243.95332"
       cx="796.23242" />
    <path
       id="path289"
       opacity="0.1"
       d="m 794.97247,144.0033 a 100,100 0 1 0 99.94999,99.95 100,100 0 0 0 -99.94999,-99.95 z m 0,186.62 a 86.67,86.67 0 1 1 86.66999,-86.67 86.67,86.67 0 0 1 -86.66999,86.67 z"
       inkscape:connector-curvature="0" />
    <path
       id="path285"
       fill="#08b2e3"
       d="m 853.08246,213.7533 -29.93,30.45 a 0.54,0.54 0 0 0 0,0.78 l 21,22.33 a 3.62,3.62 0 0 1 -2.55,6.17 3.64,3.64 0 0 1 -2.56,-1.06 l -20.89,-22.25 a 0.57,0.57 0 0 0 -0.8,0 l -5.09,5.14 a 22.37,22.37 0 0 1 -15.99999,6.73 22.86,22.86 0 0 1 -16.28,-6.92 l -4.89,-5 a 0.57,0.57 0 0 0 -0.8,0 l -20.84,22.2 a 3.61,3.61 0 0 1 -5.11,0 3.6,3.6 0 0 1 0,-5.11 l 20.92,-22.28 a 0.6,0.6 0 0 0 0,-0.78 l -29.93,-30.45 a 0.55,0.55 0 0 0 -0.94,0.39 v 60.93 a 8.92,8.92 0 0 0 8.89,8.89 h 97.86999 a 8.92,8.92 0 0 0 8.89,-8.89 v -60.88 a 0.55,0.55 0 0 0 -0.96,-0.39 z"
       inkscape:connector-curvature="0" />
    <path
       id="path287"
       fill="#08b2e3"
       d="m 796.23247,254.8133 a 15.14,15.14 0 0 0 10.92,-4.5 l 43.58999,-44.37 a 8.7,8.7 0 0 0 -5.5,-2 h -97.93999 a 8.64,8.64 0 0 0 -5.5,2 l 43.6,44.37 a 15.08,15.08 0 0 0 10.83,4.5 z"
       inkscape:connector-curvature="0" />
  </g>
  <g
     inkscape:groupmode="layer"
     id="layer3"
     inkscape:label="message"
     transform="translate(-144.82847,-28.656487)">
    <path
       style="fill:#495867;fill-opacity:1"
       d="M 766.64644,753.85087 H 381.81268 A 47.58312,47.58312 0 0 1 334.22956,706.26775 V 529.956 a 18.85083,18.85083 0 0 1 5.88232,-13.68106 L 544.0357,322.97213 a 43.88936,43.88936 0 0 1 60.38773,0 L 798.854,507.27609 a 49.27354,49.27354 0 0 1 15.37558,35.76045 v 163.23121 a 47.58312,47.58312 0 0 1 -47.58314,47.58312 z"
       transform="translate(-93.27537,-144.85931)"
       fill="#3f3d56"
       id="path1283"
       inkscape:connector-curvature="0" />
    <rect
       x="303.45419"
       y="236.49156"
       width="354"
       height="354"
       rx="26.181101"
       fill="#08b2e3"
       id="rect1289" />
    <rect
       x="325.95419"
       y="373.99155"
       width="294"
       height="8"
       fill="#f2f2f2"
       id="rect1301" />
    <rect
       x="325.95419"
       y="346.99155"
       width="294"
       height="8"
       fill="#f2f2f2"
       id="rect1299" />
    <rect
       x="325.95419"
       y="319.99155"
       width="294"
       height="8"
       fill="#f2f2f2"
       id="rect1297" />
    <rect
       x="333.95419"
       y="268.99155"
       width="99"
       height="14"
       fill="#f2f2f2"
       id="rect1295" />
    <polygon
       points="657.454,590.492 303.454,590.492 303.454,395.942 480.454,481.492 657.454,395.942 "
       opacity="0.1"
       id="polygon1291" />
    <path
       style="fill:#495867;fill-opacity:1"
       d="m 573.72956,637.35087 -226.7938,-109.617 a 9.20185,9.20185 0 0 0 -13.2062,8.28487 v 188.59984 a 28.73228,28.73228 0 0 0 28.73228,28.73229 h 422.53544 a 28.73228,28.73228 0 0 0 28.73228,-28.73229 v -185.369 a 11.22869,11.22869 0 0 0 -16.11507,-10.10975 z"
       transform="translate(-93.27537,-144.85931)"
       fill="#3f3d56"
       id="path1293"
       inkscape:connector-curvature="0" />
  </g>
  <g
     id="layer2"
     inkscape:label="phone_circle"
     inkscape:groupmode="layer"
     transform="translate(-144.82847,-28.656487)">
    <circle
       style="fill:#495867;fill-opacity:1"
       id="circle277"
       fill="#3f3d56"
       r="99.959999"
       cy="128.61649"
       cx="244.87843" />
    <path
       id="path279"
       fill="#08b2e3"
       d="m 287.78846,154.3965 c -3.48,-3.48 -11.85,-8.73 -16,-10.69 -4.79,-2.3 -6.55,-2.26 -9.94,0.19 -2.82,2 -4.65,3.93 -7.89,3.22 -3.24,-0.71 -9.66,-5.55 -15.87,-11.74 -6.21,-6.19 -11.03,-12.57 -11.72,-15.86 -0.69,-3.29 1.21,-5.08 3.23,-7.9 2.44,-3.39 2.51,-5.15 0.19,-9.94 -2,-4.150003 -7.19,-12.500003 -10.7,-16.000003 -3.51,-3.5 -4.27,-2.73 -6.19,-2 a 35.8,35.8 0 0 0 -5.66999,3 c -3.48,2.33 -5.43,4.27 -6.8,7.19 -1.37,2.92 -2.92,8.340003 5.05,22.530003 a 125.69,125.69 0 0 0 22.09999,29.47 v 0 0 a 125.88,125.88 0 0 0 29.57,22.14 c 14.18,8 19.61,6.41 22.53,5.05 2.92,-1.36 4.86,-3.29 7.18,-6.8 a 35.33,35.33 0 0 0 3,-5.67 c 0.66,-1.92 1.44,-2.7 -2.07,-6.19 z"
       inkscape:connector-curvature="0" />
    <path
       id="path281"
       opacity="0.1"
       d="m 244.87846,28.666497 a 100,100 0 1 0 99.95,99.950003 100,100 0 0 0 -99.95,-99.950003 z m 0,186.620003 a 86.67,86.67 0 1 1 86.67,-86.67 86.67,86.67 0 0 1 -86.67,86.67 z"
       inkscape:connector-curvature="0" />
  </g>
</svg>
